<?xml version="1.0" encoding="UTF-8" standalone="no"?>
<!DOCTYPE svg PUBLIC "-//W3C//DTD SVG 1.1//EN"
 "http://www.w3.org/Graphics/SVG/1.1/DTD/svg11.dtd">
<!-- Generated by graphviz version 2.40.1 (20161225.0304)
 -->
<!-- Title: G Pages: 1 -->
<svg width="739pt" height="2088pt"
 viewBox="0.00 0.00 738.63 2088.00" xmlns="http://www.w3.org/2000/svg" xmlns:xlink="http://www.w3.org/1999/xlink">
<g id="graph0" class="graph" transform="scale(1 1) rotate(0) translate(4 2084)">
<title>G</title>
<polygon fill="#ffffff" stroke="transparent" points="-4,4 -4,-2084 734.6329,-2084 734.6329,4 -4,4"/>
<!-- START -->
<g id="node1" class="node">
<title>START</title>
<polygon fill="#333333" stroke="#333333" points="237.6329,-2079.5 178.9269,-2061.5 237.6329,-2043.5 296.3389,-2061.5 237.6329,-2079.5"/>
<polyline fill="none" stroke="#333333" points="190.3997,-2065.0177 190.3997,-2057.9823 "/>
<polyline fill="none" stroke="#333333" points="226.1601,-2047.0177 249.1057,-2047.0177 "/>
<polyline fill="none" stroke="#333333" points="284.8661,-2057.9823 284.8661,-2065.0177 "/>
<polyline fill="none" stroke="#333333" points="249.1057,-2075.9823 226.1601,-2075.9823 "/>
<text text-anchor="middle" x="237.6329" y="-2057.3" font-family="lato, roboto, helvetica" font-size="14.00" fill="#dddddd">START</text>
</g>
<!-- go_to_bathroom -->
<g id="node3" class="node">
<title>go_to_bathroom</title>
<path fill="#333399" stroke="#333399" d="M187.8068,-1970.5C187.8068,-1970.5 275.459,-1970.5 275.459,-1970.5 281.459,-1970.5 287.459,-1976.5 287.459,-1982.5 287.459,-1982.5 287.459,-1994.5 287.459,-1994.5 287.459,-2000.5 281.459,-2006.5 275.459,-2006.5 275.459,-2006.5 187.8068,-2006.5 187.8068,-2006.5 181.8068,-2006.5 175.8068,-2000.5 175.8068,-1994.5 175.8068,-1994.5 175.8068,-1982.5 175.8068,-1982.5 175.8068,-1976.5 181.8068,-1970.5 187.8068,-1970.5"/>
<text text-anchor="middle" x="231.6329" y="-1984.3" font-family="lato, roboto, helvetica" font-size="14.00" fill="#eeeeee">Go To Bathroom</text>
</g>
<!-- START&#45;&gt;go_to_bathroom -->
<g id="edge2" class="edge">
<title>START&#45;&gt;go_to_bathroom</title>
<path fill="none" stroke="#999999" d="M236.1805,-2043.8287C235.4616,-2035.0822 234.5794,-2024.3493 233.784,-2014.6719"/>
<polygon fill="#999999" stroke="#999999" points="236.5596,-2014.2594 233.1136,-2006.5157 230.9785,-2014.7182 236.5596,-2014.2594"/>
</g>
<!-- look_under_bed -->
<g id="node7" class="node">
<title>look_under_bed</title>
<path fill="#333399" stroke="#333399" d="M317.5901,-1970.5C317.5901,-1970.5 403.6757,-1970.5 403.6757,-1970.5 409.6757,-1970.5 415.6757,-1976.5 415.6757,-1982.5 415.6757,-1982.5 415.6757,-1994.5 415.6757,-1994.5 415.6757,-2000.5 409.6757,-2006.5 403.6757,-2006.5 403.6757,-2006.5 317.5901,-2006.5 317.5901,-2006.5 311.5901,-2006.5 305.5901,-2000.5 305.5901,-1994.5 305.5901,-1994.5 305.5901,-1982.5 305.5901,-1982.5 305.5901,-1976.5 311.5901,-1970.5 317.5901,-1970.5"/>
<text text-anchor="middle" x="360.6329" y="-1984.3" font-family="lato, roboto, helvetica" font-size="14.00" fill="#eeeeee">Look Under Bed</text>
</g>
<!-- START&#45;&gt;look_under_bed -->
<g id="edge7" class="edge">
<title>START&#45;&gt;look_under_bed</title>
<path fill="none" stroke="#999999" d="M257.6687,-2049.6088C275.2827,-2039.155 301.3905,-2023.6601 322.9085,-2010.8893"/>
<polygon fill="#999999" stroke="#999999" points="324.5605,-2013.1649 330.011,-2006.6739 321.7024,-2008.3491 324.5605,-2013.1649"/>
</g>
<!-- in_bedroom -->
<g id="node2" class="node">
<title>in_bedroom</title>
<path fill="#339933" stroke="#339933" d="M331.0014,-2043.5C331.0014,-2043.5 390.2644,-2043.5 390.2644,-2043.5 396.2644,-2043.5 402.2644,-2049.5 402.2644,-2055.5 402.2644,-2055.5 402.2644,-2067.5 402.2644,-2067.5 402.2644,-2073.5 396.2644,-2079.5 390.2644,-2079.5 390.2644,-2079.5 331.0014,-2079.5 331.0014,-2079.5 325.0014,-2079.5 319.0014,-2073.5 319.0014,-2067.5 319.0014,-2067.5 319.0014,-2055.5 319.0014,-2055.5 319.0014,-2049.5 325.0014,-2043.5 331.0014,-2043.5"/>
<text text-anchor="middle" x="360.6329" y="-2057.3" font-family="lato, roboto, helvetica" font-size="14.00" fill="#eeeeee">In Bedroom</text>
</g>
<!-- in_bedroom&#45;&gt;go_to_bathroom -->
<g id="edge1" class="edge">
<title>in_bedroom&#45;&gt;go_to_bathroom</title>
<path fill="none" stroke="#999999" d="M328.7453,-2043.4551C311.2246,-2033.5403 289.3472,-2021.16 270.7951,-2010.6615"/>
<polygon fill="#999999" stroke="#999999" points="271.9423,-2008.0935 263.6008,-2006.5904 269.1843,-2012.9673 271.9423,-2008.0935"/>
</g>
<!-- in_bedroom&#45;&gt;look_under_bed -->
<g id="edge6" class="edge">
<title>in_bedroom&#45;&gt;look_under_bed</title>
<path fill="none" stroke="#999999" d="M360.6329,-2043.4551C360.6329,-2034.7686 360.6329,-2024.1898 360.6329,-2014.642"/>
<polygon fill="#999999" stroke="#999999" points="363.433,-2014.5903 360.6329,-2006.5904 357.833,-2014.5904 363.433,-2014.5903"/>
</g>
<!-- go_to_hallway -->
<g id="node9" class="node">
<title>go_to_hallway</title>
<path fill="#333399" stroke="#333399" d="M298.0915,-1751.5C298.0915,-1751.5 377.1743,-1751.5 377.1743,-1751.5 383.1743,-1751.5 389.1743,-1757.5 389.1743,-1763.5 389.1743,-1763.5 389.1743,-1775.5 389.1743,-1775.5 389.1743,-1781.5 383.1743,-1787.5 377.1743,-1787.5 377.1743,-1787.5 298.0915,-1787.5 298.0915,-1787.5 292.0915,-1787.5 286.0915,-1781.5 286.0915,-1775.5 286.0915,-1775.5 286.0915,-1763.5 286.0915,-1763.5 286.0915,-1757.5 292.0915,-1751.5 298.0915,-1751.5"/>
<text text-anchor="middle" x="337.6329" y="-1765.3" font-family="lato, roboto, helvetica" font-size="14.00" fill="#eeeeee">Go To Hallway</text>
</g>
<!-- in_bedroom&#45;&gt;go_to_hallway -->
<g id="edge9" class="edge">
<title>in_bedroom&#45;&gt;go_to_hallway</title>
<path fill="none" stroke="#999999" d="M391.7591,-2043.4962C404.4377,-2034.3445 417.7178,-2021.9713 424.6329,-2007 458.7377,-1933.1625 464.024,-1895.1579 424.6329,-1824 417.1352,-1810.4558 404.7098,-1799.8284 391.5638,-1791.6978"/>
<polygon fill="#999999" stroke="#999999" points="392.9686,-1789.2757 384.6459,-1787.6714 390.1516,-1794.1157 392.9686,-1789.2757"/>
</g>
<!-- in_bathroom -->
<g id="node4" class="node">
<title>in_bathroom</title>
<path fill="#339933" stroke="#339933" d="M201.0561,-1897.5C201.0561,-1897.5 264.2097,-1897.5 264.2097,-1897.5 270.2097,-1897.5 276.2097,-1903.5 276.2097,-1909.5 276.2097,-1909.5 276.2097,-1921.5 276.2097,-1921.5 276.2097,-1927.5 270.2097,-1933.5 264.2097,-1933.5 264.2097,-1933.5 201.0561,-1933.5 201.0561,-1933.5 195.0561,-1933.5 189.0561,-1927.5 189.0561,-1921.5 189.0561,-1921.5 189.0561,-1909.5 189.0561,-1909.5 189.0561,-1903.5 195.0561,-1897.5 201.0561,-1897.5"/>
<text text-anchor="middle" x="232.6329" y="-1911.3" font-family="lato, roboto, helvetica" font-size="14.00" fill="#eeeeee">In Bathroom</text>
</g>
<!-- go_to_bathroom&#45;&gt;in_bathroom -->
<g id="edge3" class="edge">
<title>go_to_bathroom&#45;&gt;in_bathroom</title>
<path fill="none" stroke="#999999" d="M231.8801,-1970.4551C231.9991,-1961.7686 232.144,-1951.1898 232.2748,-1941.642"/>
<polygon fill="#999999" stroke="#999999" points="235.0751,-1941.628 232.3851,-1933.5904 229.4757,-1941.5512 235.0751,-1941.628"/>
</g>
<!-- get_hallway_key -->
<g id="node5" class="node">
<title>get_hallway_key</title>
<path fill="#333399" stroke="#333399" d="M187.6546,-1824.5C187.6546,-1824.5 277.6112,-1824.5 277.6112,-1824.5 283.6112,-1824.5 289.6112,-1830.5 289.6112,-1836.5 289.6112,-1836.5 289.6112,-1848.5 289.6112,-1848.5 289.6112,-1854.5 283.6112,-1860.5 277.6112,-1860.5 277.6112,-1860.5 187.6546,-1860.5 187.6546,-1860.5 181.6546,-1860.5 175.6546,-1854.5 175.6546,-1848.5 175.6546,-1848.5 175.6546,-1836.5 175.6546,-1836.5 175.6546,-1830.5 181.6546,-1824.5 187.6546,-1824.5"/>
<text text-anchor="middle" x="232.6329" y="-1838.3" font-family="lato, roboto, helvetica" font-size="14.00" fill="#eeeeee">Get Hallway Key</text>
</g>
<!-- in_bathroom&#45;&gt;get_hallway_key -->
<g id="edge4" class="edge">
<title>in_bathroom&#45;&gt;get_hallway_key</title>
<path fill="none" stroke="#999999" d="M232.6329,-1897.4551C232.6329,-1888.7686 232.6329,-1878.1898 232.6329,-1868.642"/>
<polygon fill="#999999" stroke="#999999" points="235.433,-1868.5903 232.6329,-1860.5904 229.833,-1868.5904 235.433,-1868.5903"/>
</g>
<!-- go_to_bedroom -->
<g id="node6" class="node">
<title>go_to_bedroom</title>
<path fill="#333399" stroke="#333399" d="M319.7521,-1824.5C319.7521,-1824.5 403.5137,-1824.5 403.5137,-1824.5 409.5137,-1824.5 415.5137,-1830.5 415.5137,-1836.5 415.5137,-1836.5 415.5137,-1848.5 415.5137,-1848.5 415.5137,-1854.5 409.5137,-1860.5 403.5137,-1860.5 403.5137,-1860.5 319.7521,-1860.5 319.7521,-1860.5 313.7521,-1860.5 307.7521,-1854.5 307.7521,-1848.5 307.7521,-1848.5 307.7521,-1836.5 307.7521,-1836.5 307.7521,-1830.5 313.7521,-1824.5 319.7521,-1824.5"/>
<text text-anchor="middle" x="361.6329" y="-1838.3" font-family="lato, roboto, helvetica" font-size="14.00" fill="#eeeeee">Go To Bedroom</text>
</g>
<!-- in_bathroom&#45;&gt;go_to_bedroom -->
<g id="edge5" class="edge">
<title>in_bathroom&#45;&gt;go_to_bedroom</title>
<path fill="none" stroke="#999999" d="M264.5205,-1897.4551C282.0412,-1887.5403 303.9186,-1875.16 322.4707,-1864.6615"/>
<polygon fill="#999999" stroke="#999999" points="324.0815,-1866.9673 329.665,-1860.5904 321.3235,-1862.0935 324.0815,-1866.9673"/>
</g>
<!-- get_hallway_key&#45;&gt;go_to_hallway -->
<g id="edge10" class="edge">
<title>get_hallway_key&#45;&gt;go_to_hallway</title>
<path fill="none" stroke="#999999" d="M258.588,-1824.4551C272.5966,-1814.7157 290.0269,-1802.5975 304.9524,-1792.2207"/>
<polygon fill="#999999" stroke="#999999" points="306.6423,-1794.4561 311.6125,-1787.5904 303.4456,-1789.8581 306.6423,-1794.4561"/>
</g>
<!-- get_easter_egg -->
<g id="node8" class="node">
<title>get_easter_egg</title>
<path fill="#333399" stroke="#333399" d="M322.2619,-1897.5C322.2619,-1897.5 399.0039,-1897.5 399.0039,-1897.5 405.0039,-1897.5 411.0039,-1903.5 411.0039,-1909.5 411.0039,-1909.5 411.0039,-1921.5 411.0039,-1921.5 411.0039,-1927.5 405.0039,-1933.5 399.0039,-1933.5 399.0039,-1933.5 322.2619,-1933.5 322.2619,-1933.5 316.2619,-1933.5 310.2619,-1927.5 310.2619,-1921.5 310.2619,-1921.5 310.2619,-1909.5 310.2619,-1909.5 310.2619,-1903.5 316.2619,-1897.5 322.2619,-1897.5"/>
<text text-anchor="middle" x="360.6329" y="-1911.3" font-family="lato, roboto, helvetica" font-size="14.00" fill="#eeeeee">Get Easter Egg</text>
</g>
<!-- look_under_bed&#45;&gt;get_easter_egg -->
<g id="edge8" class="edge">
<title>look_under_bed&#45;&gt;get_easter_egg</title>
<path fill="none" stroke="#999999" d="M360.6329,-1970.4551C360.6329,-1961.7686 360.6329,-1951.1898 360.6329,-1941.642"/>
<polygon fill="#999999" stroke="#999999" points="363.433,-1941.5903 360.6329,-1933.5904 357.833,-1941.5904 363.433,-1941.5903"/>
</g>
<!-- in_hallway -->
<g id="node10" class="node">
<title>in_hallway</title>
<path fill="#339933" stroke="#339933" d="M310.3408,-1678.5C310.3408,-1678.5 364.925,-1678.5 364.925,-1678.5 370.925,-1678.5 376.925,-1684.5 376.925,-1690.5 376.925,-1690.5 376.925,-1702.5 376.925,-1702.5 376.925,-1708.5 370.925,-1714.5 364.925,-1714.5 364.925,-1714.5 310.3408,-1714.5 310.3408,-1714.5 304.3408,-1714.5 298.3408,-1708.5 298.3408,-1702.5 298.3408,-1702.5 298.3408,-1690.5 298.3408,-1690.5 298.3408,-1684.5 304.3408,-1678.5 310.3408,-1678.5"/>
<text text-anchor="middle" x="337.6329" y="-1692.3" font-family="lato, roboto, helvetica" font-size="14.00" fill="#eeeeee">In Hallway</text>
</g>
<!-- go_to_hallway&#45;&gt;in_hallway -->
<g id="edge11" class="edge">
<title>go_to_hallway&#45;&gt;in_hallway</title>
<path fill="none" stroke="#999999" d="M337.6329,-1751.4551C337.6329,-1742.7686 337.6329,-1732.1898 337.6329,-1722.642"/>
<polygon fill="#999999" stroke="#999999" points="340.433,-1722.5903 337.6329,-1714.5904 334.833,-1722.5904 340.433,-1722.5903"/>
</g>
<!-- go_to_storage_room -->
<g id="node11" class="node">
<title>go_to_storage_room</title>
<path fill="#333399" stroke="#333399" d="M281.5582,-1605.5C281.5582,-1605.5 393.7076,-1605.5 393.7076,-1605.5 399.7076,-1605.5 405.7076,-1611.5 405.7076,-1617.5 405.7076,-1617.5 405.7076,-1629.5 405.7076,-1629.5 405.7076,-1635.5 399.7076,-1641.5 393.7076,-1641.5 393.7076,-1641.5 281.5582,-1641.5 281.5582,-1641.5 275.5582,-1641.5 269.5582,-1635.5 269.5582,-1629.5 269.5582,-1629.5 269.5582,-1617.5 269.5582,-1617.5 269.5582,-1611.5 275.5582,-1605.5 281.5582,-1605.5"/>
<text text-anchor="middle" x="337.6329" y="-1619.3" font-family="lato, roboto, helvetica" font-size="14.00" fill="#eeeeee">Go To Storage Room</text>
</g>
<!-- in_hallway&#45;&gt;go_to_storage_room -->
<g id="edge12" class="edge">
<title>in_hallway&#45;&gt;go_to_storage_room</title>
<path fill="none" stroke="#999999" d="M337.6329,-1678.4551C337.6329,-1669.7686 337.6329,-1659.1898 337.6329,-1649.642"/>
<polygon fill="#999999" stroke="#999999" points="340.433,-1649.5903 337.6329,-1641.5904 334.833,-1649.5904 340.433,-1649.5903"/>
</g>
<!-- go_to_office -->
<g id="node18" class="node">
<title>go_to_office</title>
<path fill="#333399" stroke="#333399" d="M154.9295,-1605.5C154.9295,-1605.5 222.3363,-1605.5 222.3363,-1605.5 228.3363,-1605.5 234.3363,-1611.5 234.3363,-1617.5 234.3363,-1617.5 234.3363,-1629.5 234.3363,-1629.5 234.3363,-1635.5 228.3363,-1641.5 222.3363,-1641.5 222.3363,-1641.5 154.9295,-1641.5 154.9295,-1641.5 148.9295,-1641.5 142.9295,-1635.5 142.9295,-1629.5 142.9295,-1629.5 142.9295,-1617.5 142.9295,-1617.5 142.9295,-1611.5 148.9295,-1605.5 154.9295,-1605.5"/>
<text text-anchor="middle" x="188.6329" y="-1619.3" font-family="lato, roboto, helvetica" font-size="14.00" fill="#eeeeee">Go To Office</text>
</g>
<!-- in_hallway&#45;&gt;go_to_office -->
<g id="edge19" class="edge">
<title>in_hallway&#45;&gt;go_to_office</title>
<path fill="none" stroke="#999999" d="M300.8014,-1678.4551C280.2958,-1668.4087 254.6234,-1655.8309 233.0154,-1645.2445"/>
<polygon fill="#999999" stroke="#999999" points="233.9731,-1642.5957 225.5571,-1641.5904 231.5093,-1647.6246 233.9731,-1642.5957"/>
</g>
<!-- go_to_front_door -->
<g id="node23" class="node">
<title>go_to_front_door</title>
<path fill="#333399" stroke="#333399" d="M508.5028,-1605.5C508.5028,-1605.5 602.763,-1605.5 602.763,-1605.5 608.763,-1605.5 614.763,-1611.5 614.763,-1617.5 614.763,-1617.5 614.763,-1629.5 614.763,-1629.5 614.763,-1635.5 608.763,-1641.5 602.763,-1641.5 602.763,-1641.5 508.5028,-1641.5 508.5028,-1641.5 502.5028,-1641.5 496.5028,-1635.5 496.5028,-1629.5 496.5028,-1629.5 496.5028,-1617.5 496.5028,-1617.5 496.5028,-1611.5 502.5028,-1605.5 508.5028,-1605.5"/>
<text text-anchor="middle" x="555.6329" y="-1619.3" font-family="lato, roboto, helvetica" font-size="14.00" fill="#eeeeee">Go To Front Door</text>
</g>
<!-- in_hallway&#45;&gt;go_to_front_door -->
<g id="edge24" class="edge">
<title>in_hallway&#45;&gt;go_to_front_door</title>
<path fill="none" stroke="#999999" d="M377.1111,-1683.2803C409.6434,-1672.3864 456.3563,-1656.744 493.8386,-1644.1926"/>
<polygon fill="#999999" stroke="#999999" points="494.9915,-1646.7594 501.6884,-1641.564 493.2133,-1641.4492 494.9915,-1646.7594"/>
</g>
<!-- in_storage_room -->
<g id="node12" class="node">
<title>in_storage_room</title>
<path fill="#339933" stroke="#339933" d="M293.8075,-1532.5C293.8075,-1532.5 381.4583,-1532.5 381.4583,-1532.5 387.4583,-1532.5 393.4583,-1538.5 393.4583,-1544.5 393.4583,-1544.5 393.4583,-1556.5 393.4583,-1556.5 393.4583,-1562.5 387.4583,-1568.5 381.4583,-1568.5 381.4583,-1568.5 293.8075,-1568.5 293.8075,-1568.5 287.8075,-1568.5 281.8075,-1562.5 281.8075,-1556.5 281.8075,-1556.5 281.8075,-1544.5 281.8075,-1544.5 281.8075,-1538.5 287.8075,-1532.5 293.8075,-1532.5"/>
<text text-anchor="middle" x="337.6329" y="-1546.3" font-family="lato, roboto, helvetica" font-size="14.00" fill="#eeeeee">In Storage Room</text>
</g>
<!-- go_to_storage_room&#45;&gt;in_storage_room -->
<g id="edge13" class="edge">
<title>go_to_storage_room&#45;&gt;in_storage_room</title>
<path fill="none" stroke="#999999" d="M337.6329,-1605.4551C337.6329,-1596.7686 337.6329,-1586.1898 337.6329,-1576.642"/>
<polygon fill="#999999" stroke="#999999" points="340.433,-1576.5903 337.6329,-1568.5904 334.833,-1576.5904 340.433,-1576.5903"/>
</g>
<!-- look_in_mirror -->
<g id="node13" class="node">
<title>look_in_mirror</title>
<path fill="#333399" stroke="#333399" d="M298.8678,-1459.5C298.8678,-1459.5 376.398,-1459.5 376.398,-1459.5 382.398,-1459.5 388.398,-1465.5 388.398,-1471.5 388.398,-1471.5 388.398,-1483.5 388.398,-1483.5 388.398,-1489.5 382.398,-1495.5 376.398,-1495.5 376.398,-1495.5 298.8678,-1495.5 298.8678,-1495.5 292.8678,-1495.5 286.8678,-1489.5 286.8678,-1483.5 286.8678,-1483.5 286.8678,-1471.5 286.8678,-1471.5 286.8678,-1465.5 292.8678,-1459.5 298.8678,-1459.5"/>
<text text-anchor="middle" x="337.6329" y="-1473.3" font-family="lato, roboto, helvetica" font-size="14.00" fill="#eeeeee">Look In Mirror</text>
</g>
<!-- in_storage_room&#45;&gt;look_in_mirror -->
<g id="edge14" class="edge">
<title>in_storage_room&#45;&gt;look_in_mirror</title>
<path fill="none" stroke="#999999" d="M337.6329,-1532.4551C337.6329,-1523.7686 337.6329,-1513.1898 337.6329,-1503.642"/>
<polygon fill="#999999" stroke="#999999" points="340.433,-1503.5903 337.6329,-1495.5904 334.833,-1503.5904 340.433,-1503.5903"/>
</g>
<!-- solve_riddle -->
<g id="node14" class="node">
<title>solve_riddle</title>
<path fill="#333399" stroke="#333399" d="M305.2728,-1386.5C305.2728,-1386.5 369.993,-1386.5 369.993,-1386.5 375.993,-1386.5 381.993,-1392.5 381.993,-1398.5 381.993,-1398.5 381.993,-1410.5 381.993,-1410.5 381.993,-1416.5 375.993,-1422.5 369.993,-1422.5 369.993,-1422.5 305.2728,-1422.5 305.2728,-1422.5 299.2728,-1422.5 293.2728,-1416.5 293.2728,-1410.5 293.2728,-1410.5 293.2728,-1398.5 293.2728,-1398.5 293.2728,-1392.5 299.2728,-1386.5 305.2728,-1386.5"/>
<text text-anchor="middle" x="337.6329" y="-1400.3" font-family="lato, roboto, helvetica" font-size="14.00" fill="#eeeeee">Solve Riddle</text>
</g>
<!-- look_in_mirror&#45;&gt;solve_riddle -->
<g id="edge15" class="edge">
<title>look_in_mirror&#45;&gt;solve_riddle</title>
<path fill="none" stroke="#999999" d="M337.6329,-1459.4551C337.6329,-1450.7686 337.6329,-1440.1898 337.6329,-1430.642"/>
<polygon fill="#999999" stroke="#999999" points="340.433,-1430.5903 337.6329,-1422.5904 334.833,-1430.5904 340.433,-1430.5903"/>
</g>
<!-- get_code -->
<g id="node15" class="node">
<title>get_code</title>
<path fill="#333399" stroke="#333399" d="M315.0014,-1313.5C315.0014,-1313.5 360.2644,-1313.5 360.2644,-1313.5 366.2644,-1313.5 372.2644,-1319.5 372.2644,-1325.5 372.2644,-1325.5 372.2644,-1337.5 372.2644,-1337.5 372.2644,-1343.5 366.2644,-1349.5 360.2644,-1349.5 360.2644,-1349.5 315.0014,-1349.5 315.0014,-1349.5 309.0014,-1349.5 303.0014,-1343.5 303.0014,-1337.5 303.0014,-1337.5 303.0014,-1325.5 303.0014,-1325.5 303.0014,-1319.5 309.0014,-1313.5 315.0014,-1313.5"/>
<text text-anchor="middle" x="337.6329" y="-1327.3" font-family="lato, roboto, helvetica" font-size="14.00" fill="#eeeeee">Get Code</text>
</g>
<!-- solve_riddle&#45;&gt;get_code -->
<g id="edge16" class="edge">
<title>solve_riddle&#45;&gt;get_code</title>
<path fill="none" stroke="#999999" d="M337.6329,-1386.4551C337.6329,-1377.7686 337.6329,-1367.1898 337.6329,-1357.642"/>
<polygon fill="#999999" stroke="#999999" points="340.433,-1357.5903 337.6329,-1349.5904 334.833,-1357.5904 340.433,-1357.5903"/>
</g>
<!-- use_code -->
<g id="node16" class="node">
<title>use_code</title>
<path fill="#333399" stroke="#333399" d="M314.2244,-1240.5C314.2244,-1240.5 361.0414,-1240.5 361.0414,-1240.5 367.0414,-1240.5 373.0414,-1246.5 373.0414,-1252.5 373.0414,-1252.5 373.0414,-1264.5 373.0414,-1264.5 373.0414,-1270.5 367.0414,-1276.5 361.0414,-1276.5 361.0414,-1276.5 314.2244,-1276.5 314.2244,-1276.5 308.2244,-1276.5 302.2244,-1270.5 302.2244,-1264.5 302.2244,-1264.5 302.2244,-1252.5 302.2244,-1252.5 302.2244,-1246.5 308.2244,-1240.5 314.2244,-1240.5"/>
<text text-anchor="middle" x="337.6329" y="-1254.3" font-family="lato, roboto, helvetica" font-size="14.00" fill="#eeeeee">Use Code</text>
</g>
<!-- get_code&#45;&gt;use_code -->
<g id="edge17" class="edge">
<title>get_code&#45;&gt;use_code</title>
<path fill="none" stroke="#999999" d="M337.6329,-1313.4551C337.6329,-1304.7686 337.6329,-1294.1898 337.6329,-1284.642"/>
<polygon fill="#999999" stroke="#999999" points="340.433,-1284.5903 337.6329,-1276.5904 334.833,-1284.5904 340.433,-1284.5903"/>
</g>
<!-- get_flashlight -->
<g id="node17" class="node">
<title>get_flashlight</title>
<path fill="#333399" stroke="#333399" d="M301.7749,-1167.5C301.7749,-1167.5 373.4909,-1167.5 373.4909,-1167.5 379.4909,-1167.5 385.4909,-1173.5 385.4909,-1179.5 385.4909,-1179.5 385.4909,-1191.5 385.4909,-1191.5 385.4909,-1197.5 379.4909,-1203.5 373.4909,-1203.5 373.4909,-1203.5 301.7749,-1203.5 301.7749,-1203.5 295.7749,-1203.5 289.7749,-1197.5 289.7749,-1191.5 289.7749,-1191.5 289.7749,-1179.5 289.7749,-1179.5 289.7749,-1173.5 295.7749,-1167.5 301.7749,-1167.5"/>
<text text-anchor="middle" x="337.6329" y="-1181.3" font-family="lato, roboto, helvetica" font-size="14.00" fill="#eeeeee">Get Flashlight</text>
</g>
<!-- use_code&#45;&gt;get_flashlight -->
<g id="edge18" class="edge">
<title>use_code&#45;&gt;get_flashlight</title>
<path fill="none" stroke="#999999" d="M337.6329,-1240.4551C337.6329,-1231.7686 337.6329,-1221.1898 337.6329,-1211.642"/>
<polygon fill="#999999" stroke="#999999" points="340.433,-1211.5903 337.6329,-1203.5904 334.833,-1211.5904 340.433,-1211.5903"/>
</g>
<!-- use_flashlight -->
<g id="node27" class="node">
<title>use_flashlight</title>
<path fill="#333399" stroke="#333399" d="M300.9979,-1094.5C300.9979,-1094.5 374.2679,-1094.5 374.2679,-1094.5 380.2679,-1094.5 386.2679,-1100.5 386.2679,-1106.5 386.2679,-1106.5 386.2679,-1118.5 386.2679,-1118.5 386.2679,-1124.5 380.2679,-1130.5 374.2679,-1130.5 374.2679,-1130.5 300.9979,-1130.5 300.9979,-1130.5 294.9979,-1130.5 288.9979,-1124.5 288.9979,-1118.5 288.9979,-1118.5 288.9979,-1106.5 288.9979,-1106.5 288.9979,-1100.5 294.9979,-1094.5 300.9979,-1094.5"/>
<text text-anchor="middle" x="337.6329" y="-1108.3" font-family="lato, roboto, helvetica" font-size="14.00" fill="#eeeeee">Use Flashlight</text>
</g>
<!-- get_flashlight&#45;&gt;use_flashlight -->
<g id="edge29" class="edge">
<title>get_flashlight&#45;&gt;use_flashlight</title>
<path fill="none" stroke="#999999" d="M337.6329,-1167.4551C337.6329,-1158.7686 337.6329,-1148.1898 337.6329,-1138.642"/>
<polygon fill="#999999" stroke="#999999" points="340.433,-1138.5903 337.6329,-1130.5904 334.833,-1138.5904 340.433,-1138.5903"/>
</g>
<!-- in_office -->
<g id="node19" class="node">
<title>in_office</title>
<path fill="#339933" stroke="#339933" d="M149.1788,-1532.5C149.1788,-1532.5 192.087,-1532.5 192.087,-1532.5 198.087,-1532.5 204.087,-1538.5 204.087,-1544.5 204.087,-1544.5 204.087,-1556.5 204.087,-1556.5 204.087,-1562.5 198.087,-1568.5 192.087,-1568.5 192.087,-1568.5 149.1788,-1568.5 149.1788,-1568.5 143.1788,-1568.5 137.1788,-1562.5 137.1788,-1556.5 137.1788,-1556.5 137.1788,-1544.5 137.1788,-1544.5 137.1788,-1538.5 143.1788,-1532.5 149.1788,-1532.5"/>
<text text-anchor="middle" x="170.6329" y="-1546.3" font-family="lato, roboto, helvetica" font-size="14.00" fill="#eeeeee">In Office</text>
</g>
<!-- go_to_office&#45;&gt;in_office -->
<g id="edge20" class="edge">
<title>go_to_office&#45;&gt;in_office</title>
<path fill="none" stroke="#999999" d="M184.1835,-1605.4551C182.0416,-1596.7686 179.4331,-1586.1898 177.0789,-1576.642"/>
<polygon fill="#999999" stroke="#999999" points="179.7274,-1575.6874 175.0935,-1568.5904 174.2903,-1577.0281 179.7274,-1575.6874"/>
</g>
<!-- look_in_bureau -->
<g id="node20" class="node">
<title>look_in_bureau</title>
<path fill="#333399" stroke="#333399" d="M97.3131,-1094.5C97.3131,-1094.5 177.9527,-1094.5 177.9527,-1094.5 183.9527,-1094.5 189.9527,-1100.5 189.9527,-1106.5 189.9527,-1106.5 189.9527,-1118.5 189.9527,-1118.5 189.9527,-1124.5 183.9527,-1130.5 177.9527,-1130.5 177.9527,-1130.5 97.3131,-1130.5 97.3131,-1130.5 91.3131,-1130.5 85.3131,-1124.5 85.3131,-1118.5 85.3131,-1118.5 85.3131,-1106.5 85.3131,-1106.5 85.3131,-1100.5 91.3131,-1094.5 97.3131,-1094.5"/>
<text text-anchor="middle" x="137.6329" y="-1108.3" font-family="lato, roboto, helvetica" font-size="14.00" fill="#eeeeee">Look In Bureau</text>
</g>
<!-- in_office&#45;&gt;look_in_bureau -->
<g id="edge21" class="edge">
<title>in_office&#45;&gt;look_in_bureau</title>
<path fill="none" stroke="#999999" d="M164.2097,-1532.3254C155.1296,-1504.9656 139.6329,-1451.4013 139.6329,-1404.5 139.6329,-1404.5 139.6329,-1404.5 139.6329,-1258.5 139.6329,-1216.7395 138.8047,-1168.2664 138.2142,-1139.0131"/>
<polygon fill="#999999" stroke="#999999" points="141.0121,-1138.8773 138.0473,-1130.9368 135.4133,-1138.993 141.0121,-1138.8773"/>
</g>
<!-- look_at_diary -->
<g id="node21" class="node">
<title>look_at_diary</title>
<path fill="#333399" stroke="#333399" d="M179.4218,-1459.5C179.4218,-1459.5 253.844,-1459.5 253.844,-1459.5 259.844,-1459.5 265.844,-1465.5 265.844,-1471.5 265.844,-1471.5 265.844,-1483.5 265.844,-1483.5 265.844,-1489.5 259.844,-1495.5 253.844,-1495.5 253.844,-1495.5 179.4218,-1495.5 179.4218,-1495.5 173.4218,-1495.5 167.4218,-1489.5 167.4218,-1483.5 167.4218,-1483.5 167.4218,-1471.5 167.4218,-1471.5 167.4218,-1465.5 173.4218,-1459.5 179.4218,-1459.5"/>
<text text-anchor="middle" x="216.6329" y="-1473.3" font-family="lato, roboto, helvetica" font-size="14.00" fill="#eeeeee">Look At Diary</text>
</g>
<!-- in_office&#45;&gt;look_at_diary -->
<g id="edge22" class="edge">
<title>in_office&#45;&gt;look_at_diary</title>
<path fill="none" stroke="#999999" d="M182.0037,-1532.4551C187.6985,-1523.4177 194.684,-1512.3319 200.8858,-1502.4899"/>
<polygon fill="#999999" stroke="#999999" points="203.3374,-1503.8514 205.2335,-1495.5904 198.5996,-1500.8659 203.3374,-1503.8514"/>
</g>
<!-- get_first_aid_kit -->
<g id="node22" class="node">
<title>get_first_aid_kit</title>
<path fill="#333399" stroke="#333399" d="M12,-1459.5C12,-1459.5 99.2658,-1459.5 99.2658,-1459.5 105.2658,-1459.5 111.2658,-1465.5 111.2658,-1471.5 111.2658,-1471.5 111.2658,-1483.5 111.2658,-1483.5 111.2658,-1489.5 105.2658,-1495.5 99.2658,-1495.5 99.2658,-1495.5 12,-1495.5 12,-1495.5 6,-1495.5 0,-1489.5 0,-1483.5 0,-1483.5 0,-1471.5 0,-1471.5 0,-1465.5 6,-1459.5 12,-1459.5"/>
<text text-anchor="middle" x="55.6329" y="-1473.3" font-family="lato, roboto, helvetica" font-size="14.00" fill="#eeeeee">Get First Aid Kit</text>
</g>
<!-- in_office&#45;&gt;get_first_aid_kit -->
<g id="edge23" class="edge">
<title>in_office&#45;&gt;get_first_aid_kit</title>
<path fill="none" stroke="#999999" d="M142.2059,-1532.4551C126.725,-1522.628 107.4285,-1510.3789 90.9847,-1499.9407"/>
<polygon fill="#999999" stroke="#999999" points="92.3862,-1497.5139 84.1314,-1495.5904 89.3849,-1502.2418 92.3862,-1497.5139"/>
</g>
<!-- _0 -->
<g id="node30" class="node">
<title>_0</title>
<polygon fill="#888888" stroke="#888888" points="175.6329,-984.5 145.6062,-966.5 175.6329,-948.5 205.6596,-966.5 175.6329,-984.5"/>
<polyline fill="none" stroke="#888888" points="155.6151,-972.5 155.6151,-960.5 "/>
<polyline fill="none" stroke="#888888" points="165.624,-954.5 185.6418,-954.5 "/>
<polyline fill="none" stroke="#888888" points="195.6507,-960.5 195.6507,-972.5 "/>
<polyline fill="none" stroke="#888888" points="185.6418,-978.5 165.624,-978.5 "/>
<text text-anchor="middle" x="175.6329" y="-962.3" font-family="lato, roboto, helvetica" font-size="14.00" fill="#eeeeee">Or</text>
</g>
<!-- look_in_bureau&#45;&gt;_0 -->
<g id="edge33" class="edge">
<title>look_in_bureau&#45;&gt;_0</title>
<path fill="none" stroke="#999999" stroke-dasharray="5,2" d="M139.9927,-1094.3913C142.6525,-1075.7677 147.5505,-1046.0305 154.6329,-1021 157.7262,-1010.0677 162.1346,-998.2648 166.1144,-988.4477"/>
<polygon fill="#999999" stroke="#999999" points="168.702,-989.5171 169.1809,-981.0548 163.5294,-987.3715 168.702,-989.5171"/>
</g>
<!-- in_front_door -->
<g id="node24" class="node">
<title>in_front_door</title>
<path fill="#339933" stroke="#339933" d="M557.7521,-1313.5C557.7521,-1313.5 627.5137,-1313.5 627.5137,-1313.5 633.5137,-1313.5 639.5137,-1319.5 639.5137,-1325.5 639.5137,-1325.5 639.5137,-1337.5 639.5137,-1337.5 639.5137,-1343.5 633.5137,-1349.5 627.5137,-1349.5 627.5137,-1349.5 557.7521,-1349.5 557.7521,-1349.5 551.7521,-1349.5 545.7521,-1343.5 545.7521,-1337.5 545.7521,-1337.5 545.7521,-1325.5 545.7521,-1325.5 545.7521,-1319.5 551.7521,-1313.5 557.7521,-1313.5"/>
<text text-anchor="middle" x="592.6329" y="-1327.3" font-family="lato, roboto, helvetica" font-size="14.00" fill="#eeeeee">In Front Door</text>
</g>
<!-- go_to_front_door&#45;&gt;in_front_door -->
<g id="edge25" class="edge">
<title>go_to_front_door&#45;&gt;in_front_door</title>
<path fill="none" stroke="#999999" d="M557.9474,-1605.2341C564.2806,-1555.2529 581.9139,-1416.0932 589.3056,-1357.759"/>
<polygon fill="#999999" stroke="#999999" points="592.0913,-1358.0476 590.3193,-1349.759 586.5357,-1357.3435 592.0913,-1358.0476"/>
</g>
<!-- go_to_living_room -->
<g id="node25" class="node">
<title>go_to_living_room</title>
<path fill="#333399" stroke="#333399" d="M510.2728,-1240.5C510.2728,-1240.5 616.993,-1240.5 616.993,-1240.5 622.993,-1240.5 628.993,-1246.5 628.993,-1252.5 628.993,-1252.5 628.993,-1264.5 628.993,-1264.5 628.993,-1270.5 622.993,-1276.5 616.993,-1276.5 616.993,-1276.5 510.2728,-1276.5 510.2728,-1276.5 504.2728,-1276.5 498.2728,-1270.5 498.2728,-1264.5 498.2728,-1264.5 498.2728,-1252.5 498.2728,-1252.5 498.2728,-1246.5 504.2728,-1240.5 510.2728,-1240.5"/>
<text text-anchor="middle" x="563.6329" y="-1254.3" font-family="lato, roboto, helvetica" font-size="14.00" fill="#eeeeee">Go To Living Room</text>
</g>
<!-- in_front_door&#45;&gt;go_to_living_room -->
<g id="edge26" class="edge">
<title>in_front_door&#45;&gt;go_to_living_room</title>
<path fill="none" stroke="#999999" d="M585.4644,-1313.4551C581.9439,-1304.5932 577.641,-1293.7616 573.7887,-1284.0646"/>
<polygon fill="#999999" stroke="#999999" points="576.3753,-1282.9914 570.8195,-1276.5904 571.1709,-1285.059 576.3753,-1282.9914"/>
</g>
<!-- open_front_door -->
<g id="node41" class="node">
<title>open_front_door</title>
<path fill="#333399" stroke="#333399" d="M565.4218,-583.5C565.4218,-583.5 653.844,-583.5 653.844,-583.5 659.844,-583.5 665.844,-589.5 665.844,-595.5 665.844,-595.5 665.844,-607.5 665.844,-607.5 665.844,-613.5 659.844,-619.5 653.844,-619.5 653.844,-619.5 565.4218,-619.5 565.4218,-619.5 559.4218,-619.5 553.4218,-613.5 553.4218,-607.5 553.4218,-607.5 553.4218,-595.5 553.4218,-595.5 553.4218,-589.5 559.4218,-583.5 565.4218,-583.5"/>
<text text-anchor="middle" x="609.6329" y="-597.3" font-family="lato, roboto, helvetica" font-size="14.00" fill="#eeeeee">Open Front Door</text>
</g>
<!-- in_front_door&#45;&gt;open_front_door -->
<g id="edge49" class="edge">
<title>in_front_door&#45;&gt;open_front_door</title>
<path fill="none" stroke="#999999" d="M615.8263,-1313.4791C645.3673,-1288.3029 692.6329,-1239.5721 692.6329,-1185.5 692.6329,-1185.5 692.6329,-1185.5 692.6329,-747.5 692.6329,-705.9658 694.8112,-691.7291 673.6329,-656 666.4845,-643.9401 655.6891,-633.257 644.9904,-624.6155"/>
<polygon fill="#999999" stroke="#999999" points="646.4176,-622.1798 638.3749,-619.5048 642.9939,-626.6115 646.4176,-622.1798"/>
</g>
<!-- go_to_outside -->
<g id="node42" class="node">
<title>go_to_outside</title>
<path fill="#333399" stroke="#333399" d="M572.0298,-510.5C572.0298,-510.5 647.236,-510.5 647.236,-510.5 653.236,-510.5 659.236,-516.5 659.236,-522.5 659.236,-522.5 659.236,-534.5 659.236,-534.5 659.236,-540.5 653.236,-546.5 647.236,-546.5 647.236,-546.5 572.0298,-546.5 572.0298,-546.5 566.0298,-546.5 560.0298,-540.5 560.0298,-534.5 560.0298,-534.5 560.0298,-522.5 560.0298,-522.5 560.0298,-516.5 566.0298,-510.5 572.0298,-510.5"/>
<text text-anchor="middle" x="609.6329" y="-524.3" font-family="lato, roboto, helvetica" font-size="14.00" fill="#eeeeee">Go To Outside</text>
</g>
<!-- in_front_door&#45;&gt;go_to_outside -->
<g id="edge52" class="edge">
<title>in_front_door&#45;&gt;go_to_outside</title>
<path fill="none" stroke="#999999" d="M628.5305,-1313.4213C669.4193,-1289.9844 730.6329,-1244.9672 730.6329,-1185.5 730.6329,-1185.5 730.6329,-1185.5 730.6329,-674.5 730.6329,-621.1067 682.066,-576.7662 646.4709,-551.4387"/>
<polygon fill="#999999" stroke="#999999" points="647.7116,-548.8914 639.543,-546.6296 644.5182,-553.4917 647.7116,-548.8914"/>
</g>
<!-- in_living_room -->
<g id="node26" class="node">
<title>in_living_room</title>
<path fill="#339933" stroke="#339933" d="M464.5221,-1167.5C464.5221,-1167.5 546.7437,-1167.5 546.7437,-1167.5 552.7437,-1167.5 558.7437,-1173.5 558.7437,-1179.5 558.7437,-1179.5 558.7437,-1191.5 558.7437,-1191.5 558.7437,-1197.5 552.7437,-1203.5 546.7437,-1203.5 546.7437,-1203.5 464.5221,-1203.5 464.5221,-1203.5 458.5221,-1203.5 452.5221,-1197.5 452.5221,-1191.5 452.5221,-1191.5 452.5221,-1179.5 452.5221,-1179.5 452.5221,-1173.5 458.5221,-1167.5 464.5221,-1167.5"/>
<text text-anchor="middle" x="505.6329" y="-1181.3" font-family="lato, roboto, helvetica" font-size="14.00" fill="#eeeeee">In Living Room</text>
</g>
<!-- go_to_living_room&#45;&gt;in_living_room -->
<g id="edge27" class="edge">
<title>go_to_living_room&#45;&gt;in_living_room</title>
<path fill="none" stroke="#999999" d="M549.2958,-1240.4551C541.976,-1231.2422 532.9649,-1219.9006 525.0335,-1209.918"/>
<polygon fill="#999999" stroke="#999999" points="527.175,-1208.1122 520.0061,-1203.5904 522.7904,-1211.5959 527.175,-1208.1122"/>
</g>
<!-- in_living_room&#45;&gt;use_flashlight -->
<g id="edge28" class="edge">
<title>in_living_room&#45;&gt;use_flashlight</title>
<path fill="none" stroke="#999999" d="M464.1048,-1167.4551C440.6814,-1157.277 411.2789,-1144.5009 386.7198,-1133.8294"/>
<polygon fill="#999999" stroke="#999999" points="387.7187,-1131.2106 379.2655,-1130.5904 385.4869,-1136.3467 387.7187,-1131.2106"/>
</g>
<!-- get_requested_item -->
<g id="node34" class="node">
<title>get_requested_item</title>
<path fill="#333399" stroke="#333399" d="M511.041,-802.5C511.041,-802.5 614.2248,-802.5 614.2248,-802.5 620.2248,-802.5 626.2248,-808.5 626.2248,-814.5 626.2248,-814.5 626.2248,-826.5 626.2248,-826.5 626.2248,-832.5 620.2248,-838.5 614.2248,-838.5 614.2248,-838.5 511.041,-838.5 511.041,-838.5 505.041,-838.5 499.041,-832.5 499.041,-826.5 499.041,-826.5 499.041,-814.5 499.041,-814.5 499.041,-808.5 505.041,-802.5 511.041,-802.5"/>
<text text-anchor="middle" x="562.6329" y="-816.3" font-family="lato, roboto, helvetica" font-size="14.00" fill="#eeeeee">Get Requested Item</text>
</g>
<!-- in_living_room&#45;&gt;get_requested_item -->
<g id="edge37" class="edge">
<title>in_living_room&#45;&gt;get_requested_item</title>
<path fill="none" stroke="#999999" d="M545.9544,-1167.378C590.0814,-1144.468 654.6329,-1100.5249 654.6329,-1039.5 654.6329,-1039.5 654.6329,-1039.5 654.6329,-966.5 654.6329,-917.4782 617.0485,-871.4772 589.9247,-844.6621"/>
<polygon fill="#999999" stroke="#999999" points="591.6711,-842.4562 583.9708,-838.9142 587.7816,-846.4851 591.6711,-842.4562"/>
</g>
<!-- get_living_thing -->
<g id="node37" class="node">
<title>get_living_thing</title>
<path fill="#333399" stroke="#333399" d="M294.6385,-802.5C294.6385,-802.5 384.6273,-802.5 384.6273,-802.5 390.6273,-802.5 396.6273,-808.5 396.6273,-814.5 396.6273,-814.5 396.6273,-826.5 396.6273,-826.5 396.6273,-832.5 390.6273,-838.5 384.6273,-838.5 384.6273,-838.5 294.6385,-838.5 294.6385,-838.5 288.6385,-838.5 282.6385,-832.5 282.6385,-826.5 282.6385,-826.5 282.6385,-814.5 282.6385,-814.5 282.6385,-808.5 288.6385,-802.5 294.6385,-802.5"/>
<text text-anchor="middle" x="339.6329" y="-816.3" font-family="lato, roboto, helvetica" font-size="14.00" fill="#eeeeee">Get Living Thing</text>
</g>
<!-- in_living_room&#45;&gt;get_living_thing -->
<g id="edge42" class="edge">
<title>in_living_room&#45;&gt;get_living_thing</title>
<path fill="none" stroke="#999999" d="M497.4009,-1167.3996C470.188,-1107.5639 383.0569,-915.9804 351.3294,-846.2181"/>
<polygon fill="#999999" stroke="#999999" points="353.7753,-844.8327 347.9146,-838.7097 348.6777,-847.1511 353.7753,-844.8327"/>
</g>
<!-- look_on_couch -->
<g id="node28" class="node">
<title>look_on_couch</title>
<path fill="#333399" stroke="#333399" d="M175.5277,-1021.5C175.5277,-1021.5 257.7381,-1021.5 257.7381,-1021.5 263.7381,-1021.5 269.7381,-1027.5 269.7381,-1033.5 269.7381,-1033.5 269.7381,-1045.5 269.7381,-1045.5 269.7381,-1051.5 263.7381,-1057.5 257.7381,-1057.5 257.7381,-1057.5 175.5277,-1057.5 175.5277,-1057.5 169.5277,-1057.5 163.5277,-1051.5 163.5277,-1045.5 163.5277,-1045.5 163.5277,-1033.5 163.5277,-1033.5 163.5277,-1027.5 169.5277,-1021.5 175.5277,-1021.5"/>
<text text-anchor="middle" x="216.6329" y="-1035.3" font-family="lato, roboto, helvetica" font-size="14.00" fill="#eeeeee">Look On Couch</text>
</g>
<!-- use_flashlight&#45;&gt;look_on_couch -->
<g id="edge30" class="edge">
<title>use_flashlight&#45;&gt;look_on_couch</title>
<path fill="none" stroke="#999999" d="M307.7228,-1094.4551C291.4341,-1084.628 271.1309,-1072.3789 253.8291,-1061.9407"/>
<polygon fill="#999999" stroke="#999999" points="254.9147,-1059.3255 246.6183,-1057.5904 252.0218,-1064.1205 254.9147,-1059.3255"/>
</g>
<!-- go_to_kitchen -->
<g id="node31" class="node">
<title>go_to_kitchen</title>
<path fill="#333399" stroke="#333399" d="M299.6448,-1021.5C299.6448,-1021.5 375.621,-1021.5 375.621,-1021.5 381.621,-1021.5 387.621,-1027.5 387.621,-1033.5 387.621,-1033.5 387.621,-1045.5 387.621,-1045.5 387.621,-1051.5 381.621,-1057.5 375.621,-1057.5 375.621,-1057.5 299.6448,-1057.5 299.6448,-1057.5 293.6448,-1057.5 287.6448,-1051.5 287.6448,-1045.5 287.6448,-1045.5 287.6448,-1033.5 287.6448,-1033.5 287.6448,-1027.5 293.6448,-1021.5 299.6448,-1021.5"/>
<text text-anchor="middle" x="337.6329" y="-1035.3" font-family="lato, roboto, helvetica" font-size="14.00" fill="#eeeeee">Go To Kitchen</text>
</g>
<!-- use_flashlight&#45;&gt;go_to_kitchen -->
<g id="edge34" class="edge">
<title>use_flashlight&#45;&gt;go_to_kitchen</title>
<path fill="none" stroke="#999999" d="M337.6329,-1094.4551C337.6329,-1085.7686 337.6329,-1075.1898 337.6329,-1065.642"/>
<polygon fill="#999999" stroke="#999999" points="340.433,-1065.5903 337.6329,-1057.5904 334.833,-1065.5904 340.433,-1065.5903"/>
</g>
<!-- look_on_couch&#45;&gt;_0 -->
<g id="edge32" class="edge">
<title>look_on_couch&#45;&gt;_0</title>
<path fill="none" stroke="#999999" stroke-dasharray="5,2" d="M206.4981,-1021.4551C200.6408,-1011.0263 193.2517,-997.87 187.1718,-987.0448"/>
<polygon fill="#999999" stroke="#999999" points="189.5656,-985.5891 183.2067,-979.985 184.683,-988.3314 189.5656,-985.5891"/>
</g>
<!-- get_money -->
<g id="node29" class="node">
<title>get_money</title>
<path fill="#333399" stroke="#333399" d="M147.9474,-875.5C147.9474,-875.5 203.3184,-875.5 203.3184,-875.5 209.3184,-875.5 215.3184,-881.5 215.3184,-887.5 215.3184,-887.5 215.3184,-899.5 215.3184,-899.5 215.3184,-905.5 209.3184,-911.5 203.3184,-911.5 203.3184,-911.5 147.9474,-911.5 147.9474,-911.5 141.9474,-911.5 135.9474,-905.5 135.9474,-899.5 135.9474,-899.5 135.9474,-887.5 135.9474,-887.5 135.9474,-881.5 141.9474,-875.5 147.9474,-875.5"/>
<text text-anchor="middle" x="175.6329" y="-889.3" font-family="lato, roboto, helvetica" font-size="14.00" fill="#eeeeee">Get Money</text>
</g>
<!-- _0&#45;&gt;get_money -->
<g id="edge31" class="edge">
<title>_0&#45;&gt;get_money</title>
<path fill="none" stroke="#999999" d="M175.6329,-948.4551C175.6329,-939.7686 175.6329,-929.1898 175.6329,-919.642"/>
<polygon fill="#999999" stroke="#999999" points="178.433,-919.5903 175.6329,-911.5904 172.833,-919.5904 178.433,-919.5903"/>
</g>
<!-- in_kitchen -->
<g id="node32" class="node">
<title>in_kitchen</title>
<path fill="#339933" stroke="#339933" d="M475.8941,-948.5C475.8941,-948.5 527.3717,-948.5 527.3717,-948.5 533.3717,-948.5 539.3717,-954.5 539.3717,-960.5 539.3717,-960.5 539.3717,-972.5 539.3717,-972.5 539.3717,-978.5 533.3717,-984.5 527.3717,-984.5 527.3717,-984.5 475.8941,-984.5 475.8941,-984.5 469.8941,-984.5 463.8941,-978.5 463.8941,-972.5 463.8941,-972.5 463.8941,-960.5 463.8941,-960.5 463.8941,-954.5 469.8941,-948.5 475.8941,-948.5"/>
<text text-anchor="middle" x="501.6329" y="-962.3" font-family="lato, roboto, helvetica" font-size="14.00" fill="#eeeeee">In Kitchen</text>
</g>
<!-- go_to_kitchen&#45;&gt;in_kitchen -->
<g id="edge35" class="edge">
<title>go_to_kitchen&#45;&gt;in_kitchen</title>
<path fill="none" stroke="#999999" d="M378.1722,-1021.4551C401.8975,-1010.8944 431.9068,-997.5366 456.398,-986.635"/>
<polygon fill="#999999" stroke="#999999" points="457.6385,-989.1478 463.8085,-983.3365 455.3612,-984.0317 457.6385,-989.1478"/>
</g>
<!-- talk_to_ghost -->
<g id="node33" class="node">
<title>talk_to_ghost</title>
<path fill="#333399" stroke="#333399" d="M464.8068,-875.5C464.8068,-875.5 538.459,-875.5 538.459,-875.5 544.459,-875.5 550.459,-881.5 550.459,-887.5 550.459,-887.5 550.459,-899.5 550.459,-899.5 550.459,-905.5 544.459,-911.5 538.459,-911.5 538.459,-911.5 464.8068,-911.5 464.8068,-911.5 458.8068,-911.5 452.8068,-905.5 452.8068,-899.5 452.8068,-899.5 452.8068,-887.5 452.8068,-887.5 452.8068,-881.5 458.8068,-875.5 464.8068,-875.5"/>
<text text-anchor="middle" x="501.6329" y="-889.3" font-family="lato, roboto, helvetica" font-size="14.00" fill="#eeeeee">Talk To Ghost</text>
</g>
<!-- in_kitchen&#45;&gt;talk_to_ghost -->
<g id="edge36" class="edge">
<title>in_kitchen&#45;&gt;talk_to_ghost</title>
<path fill="none" stroke="#999999" d="M501.6329,-948.4551C501.6329,-939.7686 501.6329,-929.1898 501.6329,-919.642"/>
<polygon fill="#999999" stroke="#999999" points="504.433,-919.5903 501.6329,-911.5904 498.833,-919.5904 504.433,-919.5903"/>
</g>
<!-- give_items -->
<g id="node35" class="node">
<title>give_items</title>
<path fill="#333399" stroke="#333399" d="M582.7265,-729.5C582.7265,-729.5 636.5393,-729.5 636.5393,-729.5 642.5393,-729.5 648.5393,-735.5 648.5393,-741.5 648.5393,-741.5 648.5393,-753.5 648.5393,-753.5 648.5393,-759.5 642.5393,-765.5 636.5393,-765.5 636.5393,-765.5 582.7265,-765.5 582.7265,-765.5 576.7265,-765.5 570.7265,-759.5 570.7265,-753.5 570.7265,-753.5 570.7265,-741.5 570.7265,-741.5 570.7265,-735.5 576.7265,-729.5 582.7265,-729.5"/>
<text text-anchor="middle" x="609.6329" y="-743.3" font-family="lato, roboto, helvetica" font-size="14.00" fill="#eeeeee">Give Items</text>
</g>
<!-- in_kitchen&#45;&gt;give_items -->
<g id="edge39" class="edge">
<title>in_kitchen&#45;&gt;give_items</title>
<path fill="none" stroke="#999999" d="M539.5582,-949.2697C557.1409,-939.9885 577.4533,-927.2906 592.6329,-912 619.1616,-885.2772 625.7286,-875.3288 635.6329,-839 639.9583,-823.1346 639.2627,-818.0388 635.6329,-802 633.3912,-792.0947 629.1229,-781.8817 624.6828,-773.0123"/>
<polygon fill="#999999" stroke="#999999" points="627.1531,-771.6939 620.9534,-765.9143 622.1957,-774.2986 627.1531,-771.6939"/>
</g>
<!-- give_living_thing -->
<g id="node38" class="node">
<title>give_living_thing</title>
<path fill="#333399" stroke="#333399" d="M334.1385,-729.5C334.1385,-729.5 431.1273,-729.5 431.1273,-729.5 437.1273,-729.5 443.1273,-735.5 443.1273,-741.5 443.1273,-741.5 443.1273,-753.5 443.1273,-753.5 443.1273,-759.5 437.1273,-765.5 431.1273,-765.5 431.1273,-765.5 334.1385,-765.5 334.1385,-765.5 328.1385,-765.5 322.1385,-759.5 322.1385,-753.5 322.1385,-753.5 322.1385,-741.5 322.1385,-741.5 322.1385,-735.5 328.1385,-729.5 334.1385,-729.5"/>
<text text-anchor="middle" x="382.6329" y="-743.3" font-family="lato, roboto, helvetica" font-size="14.00" fill="#eeeeee">Give Living Thing</text>
</g>
<!-- in_kitchen&#45;&gt;give_living_thing -->
<g id="edge44" class="edge">
<title>in_kitchen&#45;&gt;give_living_thing</title>
<path fill="none" stroke="#999999" d="M477.5472,-948.4831C465.9513,-938.7635 452.644,-925.9185 443.6329,-912 415.5228,-868.5813 424.1431,-850.2984 405.6329,-802 401.9944,-792.5062 397.7304,-782.2047 393.8688,-773.14"/>
<polygon fill="#999999" stroke="#999999" points="396.3357,-771.7885 390.6047,-765.5439 391.1906,-773.9995 396.3357,-771.7885"/>
</g>
<!-- get_crowbar -->
<g id="node40" class="node">
<title>get_crowbar</title>
<path fill="#333399" stroke="#333399" d="M449.2875,-656.5C449.2875,-656.5 513.9783,-656.5 513.9783,-656.5 519.9783,-656.5 525.9783,-662.5 525.9783,-668.5 525.9783,-668.5 525.9783,-680.5 525.9783,-680.5 525.9783,-686.5 519.9783,-692.5 513.9783,-692.5 513.9783,-692.5 449.2875,-692.5 449.2875,-692.5 443.2875,-692.5 437.2875,-686.5 437.2875,-680.5 437.2875,-680.5 437.2875,-668.5 437.2875,-668.5 437.2875,-662.5 443.2875,-656.5 449.2875,-656.5"/>
<text text-anchor="middle" x="481.6329" y="-670.3" font-family="lato, roboto, helvetica" font-size="14.00" fill="#eeeeee">Get Crowbar</text>
</g>
<!-- in_kitchen&#45;&gt;get_crowbar -->
<g id="edge47" class="edge">
<title>in_kitchen&#45;&gt;get_crowbar</title>
<path fill="none" stroke="#999999" d="M529.2946,-948.3856C540.9796,-939.0632 553.3245,-926.5841 559.6329,-912 566.1614,-896.907 568.1986,-889.0374 559.6329,-875 541.4099,-845.1366 508.576,-868.4119 489.6329,-839 462.5148,-796.8952 468.7602,-735.3987 475.4092,-700.757"/>
<polygon fill="#999999" stroke="#999999" points="478.2266,-700.9556 477.0883,-692.5565 472.7404,-699.8323 478.2266,-700.9556"/>
</g>
<!-- talk_to_ghost&#45;&gt;get_requested_item -->
<g id="edge38" class="edge">
<title>talk_to_ghost&#45;&gt;get_requested_item</title>
<path fill="none" stroke="#999999" d="M516.7116,-875.4551C524.41,-866.2422 533.8872,-854.9006 542.2288,-844.918"/>
<polygon fill="#999999" stroke="#999999" points="544.5351,-846.5247 547.5163,-838.5904 540.2379,-842.9338 544.5351,-846.5247"/>
</g>
<!-- talk_to_ghost&#45;&gt;get_living_thing -->
<g id="edge43" class="edge">
<title>talk_to_ghost&#45;&gt;get_living_thing</title>
<path fill="none" stroke="#999999" d="M461.5879,-875.4551C439.0985,-865.3209 410.893,-852.611 387.2732,-841.9675"/>
<polygon fill="#999999" stroke="#999999" points="388.2227,-839.3243 379.7786,-838.5904 385.922,-844.4299 388.2227,-839.3243"/>
</g>
<!-- get_requested_item&#45;&gt;give_items -->
<g id="edge40" class="edge">
<title>get_requested_item&#45;&gt;give_items</title>
<path fill="none" stroke="#999999" d="M574.2509,-802.4551C580.0695,-793.4177 587.2069,-782.3319 593.5435,-772.4899"/>
<polygon fill="#999999" stroke="#999999" points="596.0092,-773.8326 597.9857,-765.5904 591.3007,-770.801 596.0092,-773.8326"/>
</g>
<!-- get_outside_key -->
<g id="node36" class="node">
<title>get_outside_key</title>
<path fill="#333399" stroke="#333399" d="M566.5929,-656.5C566.5929,-656.5 652.6729,-656.5 652.6729,-656.5 658.6729,-656.5 664.6729,-662.5 664.6729,-668.5 664.6729,-668.5 664.6729,-680.5 664.6729,-680.5 664.6729,-686.5 658.6729,-692.5 652.6729,-692.5 652.6729,-692.5 566.5929,-692.5 566.5929,-692.5 560.5929,-692.5 554.5929,-686.5 554.5929,-680.5 554.5929,-680.5 554.5929,-668.5 554.5929,-668.5 554.5929,-662.5 560.5929,-656.5 566.5929,-656.5"/>
<text text-anchor="middle" x="609.6329" y="-670.3" font-family="lato, roboto, helvetica" font-size="14.00" fill="#eeeeee">Get Outside Key</text>
</g>
<!-- give_items&#45;&gt;get_outside_key -->
<g id="edge41" class="edge">
<title>give_items&#45;&gt;get_outside_key</title>
<path fill="none" stroke="#999999" d="M609.6329,-729.4551C609.6329,-720.7686 609.6329,-710.1898 609.6329,-700.642"/>
<polygon fill="#999999" stroke="#999999" points="612.433,-700.5903 609.6329,-692.5904 606.833,-700.5904 612.433,-700.5903"/>
</g>
<!-- get_outside_key&#45;&gt;open_front_door -->
<g id="edge50" class="edge">
<title>get_outside_key&#45;&gt;open_front_door</title>
<path fill="none" stroke="#999999" d="M609.6329,-656.4551C609.6329,-647.7686 609.6329,-637.1898 609.6329,-627.642"/>
<polygon fill="#999999" stroke="#999999" points="612.433,-627.5903 609.6329,-619.5904 606.833,-627.5904 612.433,-627.5903"/>
</g>
<!-- get_living_thing&#45;&gt;give_living_thing -->
<g id="edge45" class="edge">
<title>get_living_thing&#45;&gt;give_living_thing</title>
<path fill="none" stroke="#999999" d="M350.2621,-802.4551C355.5855,-793.4177 362.1155,-782.3319 367.9128,-772.4899"/>
<polygon fill="#999999" stroke="#999999" points="370.3292,-773.9045 371.9769,-765.5904 365.504,-771.0623 370.3292,-773.9045"/>
</g>
<!-- get_shotgun -->
<g id="node39" class="node">
<title>get_shotgun</title>
<path fill="#333399" stroke="#333399" d="M352.4404,-583.5C352.4404,-583.5 414.8254,-583.5 414.8254,-583.5 420.8254,-583.5 426.8254,-589.5 426.8254,-595.5 426.8254,-595.5 426.8254,-607.5 426.8254,-607.5 426.8254,-613.5 420.8254,-619.5 414.8254,-619.5 414.8254,-619.5 352.4404,-619.5 352.4404,-619.5 346.4404,-619.5 340.4404,-613.5 340.4404,-607.5 340.4404,-607.5 340.4404,-595.5 340.4404,-595.5 340.4404,-589.5 346.4404,-583.5 352.4404,-583.5"/>
<text text-anchor="middle" x="383.6329" y="-597.3" font-family="lato, roboto, helvetica" font-size="14.00" fill="#eeeeee">Get Shotgun</text>
</g>
<!-- give_living_thing&#45;&gt;get_shotgun -->
<g id="edge46" class="edge">
<title>give_living_thing&#45;&gt;get_shotgun</title>
<path fill="none" stroke="#999999" d="M382.7575,-729.3042C382.9319,-703.8403 383.2499,-657.4108 383.4509,-628.0759"/>
<polygon fill="#999999" stroke="#999999" points="386.2517,-627.9441 383.5067,-619.9251 380.6519,-627.9057 386.2517,-627.9441"/>
</g>
<!-- _1 -->
<g id="node51" class="node">
<title>_1</title>
<polygon fill="#888888" stroke="#888888" points="439.6329,-109 409.6062,-91 439.6329,-73 469.6596,-91 439.6329,-109"/>
<polyline fill="none" stroke="#888888" points="419.6151,-97 419.6151,-85 "/>
<polyline fill="none" stroke="#888888" points="429.624,-79 449.6418,-79 "/>
<polyline fill="none" stroke="#888888" points="459.6507,-85 459.6507,-97 "/>
<polyline fill="none" stroke="#888888" points="449.6418,-103 429.624,-103 "/>
<text text-anchor="middle" x="439.6329" y="-86.8" font-family="lato, roboto, helvetica" font-size="14.00" fill="#eeeeee">Or</text>
</g>
<!-- get_shotgun&#45;&gt;_1 -->
<g id="edge61" class="edge">
<title>get_shotgun&#45;&gt;_1</title>
<path fill="none" stroke="#999999" stroke-dasharray="5,2" d="M386.9481,-583.1328C391.6346,-555.5273 399.6329,-501.6531 399.6329,-455.5 399.6329,-455.5 399.6329,-455.5 399.6329,-236.5 399.6329,-191.1966 417.8853,-140.7057 429.7308,-112.708"/>
<polygon fill="#999999" stroke="#999999" points="432.4155,-113.5548 433.0277,-105.1011 427.2773,-111.3278 432.4155,-113.5548"/>
</g>
<!-- get_crowbar&#45;&gt;open_front_door -->
<g id="edge48" class="edge">
<title>get_crowbar&#45;&gt;open_front_door</title>
<path fill="none" stroke="#999999" d="M513.2734,-656.4551C530.6582,-646.5403 552.366,-634.16 570.7743,-623.6615"/>
<polygon fill="#999999" stroke="#999999" points="572.3507,-625.9859 577.9128,-619.5904 569.5764,-621.1214 572.3507,-625.9859"/>
</g>
<!-- open_front_door&#45;&gt;go_to_outside -->
<g id="edge51" class="edge">
<title>open_front_door&#45;&gt;go_to_outside</title>
<path fill="none" stroke="#999999" d="M609.6329,-583.4551C609.6329,-574.7686 609.6329,-564.1898 609.6329,-554.642"/>
<polygon fill="#999999" stroke="#999999" points="612.433,-554.5903 609.6329,-546.5904 606.833,-554.5904 612.433,-554.5903"/>
</g>
<!-- in_outside -->
<g id="node43" class="node">
<title>in_outside</title>
<path fill="#339933" stroke="#339933" d="M583.2791,-437.5C583.2791,-437.5 633.9867,-437.5 633.9867,-437.5 639.9867,-437.5 645.9867,-443.5 645.9867,-449.5 645.9867,-449.5 645.9867,-461.5 645.9867,-461.5 645.9867,-467.5 639.9867,-473.5 633.9867,-473.5 633.9867,-473.5 583.2791,-473.5 583.2791,-473.5 577.2791,-473.5 571.2791,-467.5 571.2791,-461.5 571.2791,-461.5 571.2791,-449.5 571.2791,-449.5 571.2791,-443.5 577.2791,-437.5 583.2791,-437.5"/>
<text text-anchor="middle" x="608.6329" y="-451.3" font-family="lato, roboto, helvetica" font-size="14.00" fill="#eeeeee">In Outside</text>
</g>
<!-- go_to_outside&#45;&gt;in_outside -->
<g id="edge53" class="edge">
<title>go_to_outside&#45;&gt;in_outside</title>
<path fill="none" stroke="#999999" d="M609.3857,-510.4551C609.2667,-501.7686 609.1218,-491.1898 608.991,-481.642"/>
<polygon fill="#999999" stroke="#999999" points="611.7901,-481.5512 608.8807,-473.5904 606.1907,-481.628 611.7901,-481.5512"/>
</g>
<!-- go_to_shed -->
<g id="node44" class="node">
<title>go_to_shed</title>
<path fill="#333399" stroke="#333399" d="M578.8047,-364.5C578.8047,-364.5 638.4611,-364.5 638.4611,-364.5 644.4611,-364.5 650.4611,-370.5 650.4611,-376.5 650.4611,-376.5 650.4611,-388.5 650.4611,-388.5 650.4611,-394.5 644.4611,-400.5 638.4611,-400.5 638.4611,-400.5 578.8047,-400.5 578.8047,-400.5 572.8047,-400.5 566.8047,-394.5 566.8047,-388.5 566.8047,-388.5 566.8047,-376.5 566.8047,-376.5 566.8047,-370.5 572.8047,-364.5 578.8047,-364.5"/>
<text text-anchor="middle" x="608.6329" y="-378.3" font-family="lato, roboto, helvetica" font-size="14.00" fill="#eeeeee">Go To Shed</text>
</g>
<!-- in_outside&#45;&gt;go_to_shed -->
<g id="edge54" class="edge">
<title>in_outside&#45;&gt;go_to_shed</title>
<path fill="none" stroke="#999999" d="M608.6329,-437.4551C608.6329,-428.7686 608.6329,-418.1898 608.6329,-408.642"/>
<polygon fill="#999999" stroke="#999999" points="611.433,-408.5903 608.6329,-400.5904 605.833,-408.5904 611.433,-408.5903"/>
</g>
<!-- in_shed -->
<g id="node45" class="node">
<title>in_shed</title>
<path fill="#339933" stroke="#339933" d="M589.054,-291.5C589.054,-291.5 624.2118,-291.5 624.2118,-291.5 630.2118,-291.5 636.2118,-297.5 636.2118,-303.5 636.2118,-303.5 636.2118,-315.5 636.2118,-315.5 636.2118,-321.5 630.2118,-327.5 624.2118,-327.5 624.2118,-327.5 589.054,-327.5 589.054,-327.5 583.054,-327.5 577.054,-321.5 577.054,-315.5 577.054,-315.5 577.054,-303.5 577.054,-303.5 577.054,-297.5 583.054,-291.5 589.054,-291.5"/>
<text text-anchor="middle" x="606.6329" y="-305.3" font-family="lato, roboto, helvetica" font-size="14.00" fill="#eeeeee">In Shed</text>
</g>
<!-- go_to_shed&#45;&gt;in_shed -->
<g id="edge55" class="edge">
<title>go_to_shed&#45;&gt;in_shed</title>
<path fill="none" stroke="#999999" d="M608.1385,-364.4551C607.9005,-355.7686 607.6107,-345.1898 607.3491,-335.642"/>
<polygon fill="#999999" stroke="#999999" points="610.1467,-335.5106 607.1285,-327.5904 604.5488,-335.6641 610.1467,-335.5106"/>
</g>
<!-- look_at_car -->
<g id="node46" class="node">
<title>look_at_car</title>
<path fill="#333399" stroke="#333399" d="M575.2521,-218.5C575.2521,-218.5 638.0137,-218.5 638.0137,-218.5 644.0137,-218.5 650.0137,-224.5 650.0137,-230.5 650.0137,-230.5 650.0137,-242.5 650.0137,-242.5 650.0137,-248.5 644.0137,-254.5 638.0137,-254.5 638.0137,-254.5 575.2521,-254.5 575.2521,-254.5 569.2521,-254.5 563.2521,-248.5 563.2521,-242.5 563.2521,-242.5 563.2521,-230.5 563.2521,-230.5 563.2521,-224.5 569.2521,-218.5 575.2521,-218.5"/>
<text text-anchor="middle" x="606.6329" y="-232.3" font-family="lato, roboto, helvetica" font-size="14.00" fill="#eeeeee">Look At Car</text>
</g>
<!-- in_shed&#45;&gt;look_at_car -->
<g id="edge56" class="edge">
<title>in_shed&#45;&gt;look_at_car</title>
<path fill="none" stroke="#999999" d="M606.6329,-291.4551C606.6329,-282.7686 606.6329,-272.1898 606.6329,-262.642"/>
<polygon fill="#999999" stroke="#999999" points="609.433,-262.5903 606.6329,-254.5904 603.833,-262.5904 609.433,-262.5903"/>
</g>
<!-- look_in_freezer -->
<g id="node48" class="node">
<title>look_in_freezer</title>
<path fill="#333399" stroke="#333399" d="M447.5452,-218.5C447.5452,-218.5 529.7206,-218.5 529.7206,-218.5 535.7206,-218.5 541.7206,-224.5 541.7206,-230.5 541.7206,-230.5 541.7206,-242.5 541.7206,-242.5 541.7206,-248.5 535.7206,-254.5 529.7206,-254.5 529.7206,-254.5 447.5452,-254.5 447.5452,-254.5 441.5452,-254.5 435.5452,-248.5 435.5452,-242.5 435.5452,-242.5 435.5452,-230.5 435.5452,-230.5 435.5452,-224.5 441.5452,-218.5 447.5452,-218.5"/>
<text text-anchor="middle" x="488.6329" y="-232.3" font-family="lato, roboto, helvetica" font-size="14.00" fill="#eeeeee">Look In Freezer</text>
</g>
<!-- in_shed&#45;&gt;look_in_freezer -->
<g id="edge58" class="edge">
<title>in_shed&#45;&gt;look_in_freezer</title>
<path fill="none" stroke="#999999" d="M577.4644,-291.4551C561.5795,-281.628 541.7797,-269.3789 524.9069,-258.9407"/>
<polygon fill="#999999" stroke="#999999" points="526.1513,-256.4181 517.8749,-254.5904 523.2051,-261.1804 526.1513,-256.4181"/>
</g>
<!-- start_car -->
<g id="node47" class="node">
<title>start_car</title>
<path fill="#333399" stroke="#333399" d="M585.5575,-145.5C585.5575,-145.5 627.7083,-145.5 627.7083,-145.5 633.7083,-145.5 639.7083,-151.5 639.7083,-157.5 639.7083,-157.5 639.7083,-169.5 639.7083,-169.5 639.7083,-175.5 633.7083,-181.5 627.7083,-181.5 627.7083,-181.5 585.5575,-181.5 585.5575,-181.5 579.5575,-181.5 573.5575,-175.5 573.5575,-169.5 573.5575,-169.5 573.5575,-157.5 573.5575,-157.5 573.5575,-151.5 579.5575,-145.5 585.5575,-145.5"/>
<text text-anchor="middle" x="606.6329" y="-159.3" font-family="lato, roboto, helvetica" font-size="14.00" fill="#eeeeee">Start Car</text>
</g>
<!-- look_at_car&#45;&gt;start_car -->
<g id="edge57" class="edge">
<title>look_at_car&#45;&gt;start_car</title>
<path fill="none" stroke="#999999" d="M606.6329,-218.4551C606.6329,-209.7686 606.6329,-199.1898 606.6329,-189.642"/>
<polygon fill="#999999" stroke="#999999" points="609.433,-189.5903 606.6329,-181.5904 603.833,-189.5904 609.433,-189.5903"/>
</g>
<!-- get_saw -->
<g id="node49" class="node">
<title>get_saw</title>
<path fill="#333399" stroke="#333399" d="M458.7251,-145.5C458.7251,-145.5 498.5407,-145.5 498.5407,-145.5 504.5407,-145.5 510.5407,-151.5 510.5407,-157.5 510.5407,-157.5 510.5407,-169.5 510.5407,-169.5 510.5407,-175.5 504.5407,-181.5 498.5407,-181.5 498.5407,-181.5 458.7251,-181.5 458.7251,-181.5 452.7251,-181.5 446.7251,-175.5 446.7251,-169.5 446.7251,-169.5 446.7251,-157.5 446.7251,-157.5 446.7251,-151.5 452.7251,-145.5 458.7251,-145.5"/>
<text text-anchor="middle" x="478.6329" y="-159.3" font-family="lato, roboto, helvetica" font-size="14.00" fill="#eeeeee">Get Saw</text>
</g>
<!-- look_in_freezer&#45;&gt;get_saw -->
<g id="edge59" class="edge">
<title>look_in_freezer&#45;&gt;get_saw</title>
<path fill="none" stroke="#999999" d="M486.161,-218.4551C484.9711,-209.7686 483.5219,-199.1898 482.214,-189.642"/>
<polygon fill="#999999" stroke="#999999" points="484.971,-189.1363 481.111,-181.5904 479.4228,-189.8964 484.971,-189.1363"/>
</g>
<!-- get_saw&#45;&gt;_1 -->
<g id="edge62" class="edge">
<title>get_saw&#45;&gt;_1</title>
<path fill="none" stroke="#999999" stroke-dasharray="5,2" d="M468.7916,-145.2052C463.3442,-135.0786 456.5514,-122.451 450.8929,-111.9321"/>
<polygon fill="#999999" stroke="#999999" points="453.2644,-110.4301 447.0086,-104.7113 448.3327,-113.0831 453.2644,-110.4301"/>
</g>
<!-- open_gate -->
<g id="node50" class="node">
<title>open_gate</title>
<path fill="#993333" stroke="#993333" d="M413.5091,-.5C413.5091,-.5 465.7567,-.5 465.7567,-.5 471.7567,-.5 477.7567,-6.5 477.7567,-12.5 477.7567,-12.5 477.7567,-24.5 477.7567,-24.5 477.7567,-30.5 471.7567,-36.5 465.7567,-36.5 465.7567,-36.5 413.5091,-36.5 413.5091,-36.5 407.5091,-36.5 401.5091,-30.5 401.5091,-24.5 401.5091,-24.5 401.5091,-12.5 401.5091,-12.5 401.5091,-6.5 407.5091,-.5 413.5091,-.5"/>
<text text-anchor="middle" x="439.6329" y="-14.3" font-family="lato, roboto, helvetica" font-size="14.00" fill="#eeeeee">Open Gate</text>
</g>
<!-- _1&#45;&gt;open_gate -->
<g id="edge60" class="edge">
<title>_1&#45;&gt;open_gate</title>
<path fill="none" stroke="#999999" d="M439.6329,-72.7052C439.6329,-64.2264 439.6329,-53.9943 439.6329,-44.7146"/>
<polygon fill="#999999" stroke="#999999" points="442.433,-44.5378 439.6329,-36.5378 436.833,-44.5378 442.433,-44.5378"/>
</g>
</g>
</svg>
